<svg width="24" height="24" viewBox="0 0 24 24" fill="none" xmlns="http://www.w3.org/2000/svg">
<g clip-path="url(#clip0_3_251)">
<path d="M18.0244 7.18316C17.2729 6.32466 16.3466 5.63669 15.3076 5.16533C14.2686 4.69398 13.1409 4.45013 12 4.45013C10.8591 4.45013 9.73132 4.69398 8.69232 5.16533C7.65332 5.63669 6.72706 6.32466 5.97561 7.18316L1.59186 12L5.97561 16.8169C6.72706 17.6754 7.65332 18.3634 8.69232 18.8347C9.73132 19.3061 10.8591 19.5499 12 19.5499C13.1409 19.5499 14.2686 19.3061 15.3076 18.8347C16.3466 18.3634 17.2729 17.6754 18.0244 16.8169L22.4081 12L18.0244 7.18316ZM16.5675 15.4913C16.0007 16.1559 15.2964 16.6896 14.5034 17.0555C13.7103 17.4215 12.8472 17.611 11.9737 17.611C11.1003 17.611 10.2372 17.4215 9.44412 17.0555C8.65102 16.6896 7.94678 16.1559 7.37998 15.4913L4.25623 12L7.43248 8.50878C7.99928 7.84419 8.70352 7.3105 9.49662 6.94453C10.2897 6.57857 11.1528 6.38904 12.0262 6.38904C12.8997 6.38904 13.7628 6.57857 14.5559 6.94453C15.3489 7.3105 16.0532 7.84419 16.62 8.50878L19.7437 12L16.5675 15.4913ZM9.45373 9.45378C8.94727 9.95789 8.60183 10.601 8.4612 11.3016C8.32056 12.0022 8.39106 12.7288 8.66375 13.3893C8.93644 14.0498 9.39905 14.6145 9.99297 15.0119C10.5869 15.4092 11.2854 15.6213 12 15.6213C12.7146 15.6213 13.4131 15.4092 14.007 15.0119C14.6009 14.6145 15.0635 14.0498 15.3362 13.3893C15.6089 12.7288 15.6794 12.0022 15.5388 11.3016C15.3981 10.601 15.0527 9.95789 14.5462 9.45378C14.214 9.11567 13.8177 8.84712 13.3805 8.66381C12.9433 8.48049 12.474 8.38608 12 8.38608C11.5259 8.38608 11.0566 8.48049 10.6195 8.66381C10.1823 8.84712 9.78601 9.11567 9.45373 9.45378V9.45378ZM13.155 13.155C13.0037 13.3074 12.8238 13.4284 12.6255 13.5109C12.4273 13.5934 12.2147 13.6359 12 13.6359C11.7853 13.6359 11.5727 13.5934 11.3744 13.5109C11.1762 13.4284 10.9963 13.3074 10.845 13.155C10.6141 12.9262 10.4564 12.6339 10.3919 12.3152C10.3275 11.9966 10.3591 11.666 10.4829 11.3653C10.6066 11.0647 10.8169 10.8076 11.087 10.6267C11.3571 10.4458 11.6749 10.3492 12 10.3492C12.3251 10.3492 12.6429 10.4458 12.913 10.6267C13.1831 10.8076 13.3933 11.0647 13.5171 11.3653C13.6408 11.666 13.6725 11.9966 13.608 12.3152C13.5436 12.6339 13.3859 12.9262 13.155 13.155V13.155Z" fill="#242E30"/>
</g>
<defs>
<clipPath id="clip0_3_251">
<rect width="21" height="21" fill="white" transform="translate(1.5 1.5)"/>
</clipPath>
</defs>
</svg>
